{"title":"The.Intern.2015.BRRip.720p.x264.AAC-PRiSTiNE [P2PDL]","uid":13154861,"size":826822059,"categoryP":"video","categoryS":"handheld","magnet":"?xt=urn:btih:79b129cc458ab8e81b995c8b83a87812f4574c6c&amp;dn=The.Intern.2015.BRRip.720p.x264.AAC-PRiSTiNE+%5BP2PDL%5D&amp;tr=udp%3A%2F%2Ftracker.leechers-paradise.org%3A6969&amp;tr=udp%3A%2F%2Fzer0day.ch%3A1337&amp;tr=udp%3A%2F%2Fopen.demonii.com%3A1337&amp;tr=udp%3A%2F%2Ftracker.coppersurfer.tk%3A6969&amp;tr=udp%3A%2F%2Fexodus.desync.com%3A6969","seeders":7,"leechers":1,"uploader":"VYTOP2PDL","files":7,"time":1452091005,"description":"____    ____ ____    ____ .___________.  ______   \r\n     /   /      /   / |           | /  __    \r\n    /   /      /   /  `---|  |----`|  |  |  | \r\n        /     _    _/       |  |     |  |  |  | \r\n       /        |  |         |  |     |  `--'  | \r\n    __/         |__|         |__|      ______/  \r\n                                                  \r\nPresenting Small Encodes with quality for years!\r\n                                                                                                   \r\n                                                                                                   \r\n\r\nThe.Intern.2015.BRRip.720p.x264.AAC-PRiSTiNE\r\n\r\n\r\nGenre: Comedy  \nhttp://www.imdb.com/title/tt2361509/\r\n\r\n\r\nFormat                                   : MPEG-4\r\nFile size                                : 776 MiB\r\nDuration                                 : 2h 1mn\r\nOverall bit rate                         : 893 Kbps\r\n\r\nVideo\r\nFormat                                   : AVC\r\nBit rate                                 : 811 Kbps\r\nWidth                                    : 1 280 pixels\r\nHeight                                   : 720 pixels\r\nDisplay aspect ratio                     : 16:9\r\nFrame rate mode                          : Constant\r\nFrame rate                               : 23.976 fps\r\nBit depth                                : 8 bits\r\nStream size                              : 704 MiB (91%)\r\nWriting library                          : x264\r\n\r\nAudio\r\nFormat                                   : AAC\r\nBit rate mode                            : Variable\r\nBit rate                                 : 79.9 Kbps\r\nChannel(s)                               : 2 channels\r\nChannel positions                        : Front: L R\r\nSampling rate                            : 48.0 KHz\r\nStream size                              : 69.5 MiB (9%)\r\nLanguage                                 : English\r\n\r\nSubtitle                                 : Yes (English)\r\n\r\nScreen Shots: (Click to view)\r\n \nhttp://ititli.com/py \nhttp://ititli.com/p3 \nhttp://ititli.com/pE \nhttp://ititli.com/pQ \nhttp://ititli.com/pS \nhttp://ititli.com/pZ \nhttp://ititli.com/pc \nhttp://ititli.com/pi \nhttp://ititli.com/pp\r\n\r\n----------------------------------------------------------------------------------------------------\r\n\r\n\r\nEncoder Notes: Looking For Early Access To Anything You Can Provide WEBDL, DVDScr, DVDR, BluRay,\r\nDirect Audio, Music Releases and Seedboxes. If You Got anything to offer please contact us.\r\n\r\nSupport us by donating BC - 1FgwdzPsd1y25Gea8wP1qni35uGCtmkRCD\r\n\r\nSend some love!\r\nFind us and join us!\r\n\r\nTry all new image sharing/hosting service at:    \nhttp://ititli.com/","torrent":{"xt":"urn:btih:79b129cc458ab8e81b995c8b83a87812f4574c6c","amp;dn":"The.Intern.2015.BRRip.720p.x264.AAC-PRiSTiNE+%5BP2PDL%5D","amp;tr":["udp%3A%2F%2Ftracker.leechers-paradise.org%3A6969","udp%3A%2F%2Fzer0day.ch%3A1337","udp%3A%2F%2Fopen.demonii.com%3A1337","udp%3A%2F%2Ftracker.coppersurfer.tk%3A6969","udp%3A%2F%2Fexodus.desync.com%3A6969"],"infoHash":"79b129cc458ab8e81b995c8b83a87812f4574c6c","infoHashBuffer":{"type":"Buffer","data":[121,177,41,204,69,138,184,232,27,153,92,139,131,168,120,18,244,87,76,108]},"announce":[],"urlList":[]}}